<svg width="28" height="28" viewBox="0 0 28 28" fill="none" xmlns="http://www.w3.org/2000/svg">
<g clip-path="url(#clip0_22_261)">
<path fill-rule="evenodd" clip-rule="evenodd" d="M16.4678 19.5157C16.4678 19.1154 16.5467 18.719 16.6999 18.3491C16.8531 17.9793 17.0776 17.6432 17.3607 17.3602C17.6437 17.0771 17.9798 16.8526 18.3496 16.6994C18.7195 16.5462 19.1159 16.4673 19.5162 16.4673C19.9165 16.4673 20.3129 16.5462 20.6828 16.6994C21.0526 16.8526 21.3887 17.0771 21.6717 17.3602C21.9548 17.6432 22.1794 17.9793 22.3325 18.3491C22.4857 18.719 22.5646 19.1154 22.5646 19.5157C22.5646 20.3242 22.2434 21.0996 21.6717 21.6712C21.1001 22.2429 20.3247 22.5641 19.5162 22.5641C18.7077 22.5641 17.9324 22.2429 17.3607 21.6712C16.789 21.0996 16.4678 20.3242 16.4678 19.5157ZM19.5162 14.4351C18.724 14.4351 17.9427 14.6205 17.2349 14.9763C16.527 15.3321 15.9122 15.8486 15.4395 16.4843C14.9668 17.1201 14.6494 17.8576 14.5125 18.638C14.3756 19.4183 14.4231 20.2198 14.6512 20.9785C14.8793 21.7372 15.2817 22.432 15.8262 23.0075C16.3707 23.583 17.0422 24.0232 17.7871 24.2929C18.5321 24.5626 19.3297 24.6543 20.1164 24.5608C20.9031 24.4673 21.6571 24.1911 22.318 23.7543L25.5717 27.0086C25.7623 27.1993 26.0208 27.3064 26.2904 27.3064C26.56 27.3064 26.8185 27.1993 27.0091 27.0086C27.1998 26.818 27.3069 26.5595 27.3069 26.2899C27.3069 26.0203 27.1998 25.7618 27.0091 25.5712L23.7548 22.3175C24.261 21.5518 24.5503 20.6632 24.592 19.7462C24.6336 18.8291 24.426 17.918 23.9913 17.1095C23.5566 16.301 22.9109 15.6254 22.1229 15.1545C21.335 14.6836 20.4342 14.435 19.5162 14.4351Z" fill="#605656"/>
<rect x="1.00006" y="1" width="12.6452" height="12.6452" rx="1" fill="#605656"/>
<path d="M14.5485 2C14.5485 1.44771 14.9962 1 15.5485 1H26.1936C26.7459 1 27.1936 1.44772 27.1936 2V12.4922C27.1936 13.1007 26.6546 13.5682 26.0522 13.4821L24.1237 13.2066C21.9662 12.8984 19.7759 12.8984 17.6184 13.2066L15.6899 13.4821C15.0875 13.5682 14.5485 13.1007 14.5485 12.4922V2Z" fill="#605656"/>
<path d="M1.00006 15.5483C1.00006 14.9961 1.44778 14.5483 2.00006 14.5483H12.4082C13.0449 14.5483 13.5194 15.1354 13.386 15.7579L12.8292 18.3566C12.474 20.014 12.474 21.7278 12.8292 23.3853L13.386 25.984C13.5194 26.6065 13.0449 27.1935 12.4082 27.1935H2.00006C1.44778 27.1935 1.00006 26.7458 1.00006 26.1935V15.5483Z" fill="#605656"/>
</g>
<defs>
<clipPath id="clip0_22_261">
<rect width="28" height="28" fill="white"/>
</clipPath>
</defs>
</svg>
