<svg width="20" height="20" viewBox="0 0 18 20" fill="none" xmlns="http://www.w3.org/2000/svg">
<path d="M8.99997 8C10.1045 8 11 8.89543 11 10C11 11.1046 10.1045 12 8.99997 12C7.8954 12 6.99997 11.1046 6.99997 10C6.99997 8.89543 7.8954 8 8.99997 8Z" stroke="#686B6E" stroke-width="1.5" stroke-linecap="round" stroke-linejoin="round"/>
<path d="M3.90133 4.7469C2.96489 4.20624 1.76746 4.52709 1.22681 5.46353L1.18507 5.53583C0.644206 6.47263 0.965176 7.67051 1.90197 8.21137L2.14477 8.35155C2.71739 8.68215 2.99997 9.3388 2.99997 10C2.99997 10.6612 2.71739 11.3179 2.14477 11.6485L1.90197 11.7886C0.965177 12.3295 0.644207 13.5274 1.18507 14.4642L1.22681 14.5365C1.76746 15.4729 2.96489 15.7938 3.90133 15.2531L4.14543 15.1122C4.718 14.7816 5.42328 14.863 5.99527 15.1946C6.56708 15.526 6.99997 16.1005 6.99997 16.7614V17.0427C6.99997 18.1237 7.87627 19 8.95725 19H9.0427C10.1237 19 11 18.1237 11 17.0427V16.7614C11 16.1005 11.4329 15.5261 12.0047 15.1946C12.5767 14.863 13.2819 14.7816 13.8545 15.1122L14.0986 15.2531C15.0351 15.7938 16.2325 15.4729 16.7732 14.5365L16.8149 14.4642C17.3558 13.5274 17.0348 12.3295 16.098 11.7886L15.8552 11.6485C15.2826 11.3179 15 10.6612 15 10C15 9.3388 15.2826 8.68215 15.8552 8.35155L16.098 8.21137C17.0348 7.6705 17.3558 6.47262 16.8149 5.53581L16.7732 5.46353C16.2325 4.52709 15.0351 4.20623 14.0986 4.74689L13.8545 4.88783C13.2819 5.2184 12.5767 5.13699 12.0047 4.80541C11.4329 4.47395 11 3.89952 11 3.23859V2.95728C11 1.8763 10.1237 1 9.0427 1L8.95725 1C7.87627 1 6.99997 1.8763 6.99997 2.95727V3.23858C6.99997 3.89952 6.56708 4.47395 5.99527 4.80542C5.42328 5.13699 4.718 5.2184 4.14543 4.88783L3.90133 4.7469Z" stroke="#686B6E" stroke-width="1.5" stroke-linecap="round" stroke-linejoin="round"/>
</svg>
