<svg width="28" height="28" viewBox="0 0 28 28" fill="none" xmlns="http://www.w3.org/2000/svg">
<g clip-path="url(#clip0_22_272)">
<path d="M12.9423 17.7918C11.881 17.974 10.7983 17.9957 9.73051 17.856C9.55365 17.832 9.37708 17.806 9.20085 17.7778C8.76484 17.7099 8.31882 17.7974 7.94085 18.0251L5.71951 19.3645C5.54844 19.4699 5.34809 19.5177 5.14785 19.501C5.02674 19.4918 4.90862 19.4589 4.80028 19.404C4.69194 19.3491 4.59549 19.2734 4.51648 19.1811C4.43746 19.0889 4.37743 18.982 4.33983 18.8665C4.30223 18.751 4.28779 18.6292 4.29735 18.5081L4.47235 16.4303C4.49415 16.1697 4.45971 15.9074 4.37135 15.6612C4.28298 15.415 4.14276 15.1907 3.96018 15.0035C3.86321 14.9046 3.76943 14.8027 3.67901 14.6978C2.56601 13.3911 1.90918 11.7788 1.90918 10.0358C1.90918 5.66779 6.03568 2.12696 11.1258 2.12696C15.8625 2.12696 19.7627 5.19179 20.2842 9.1363C24.2182 9.3148 27.3425 12.0705 27.3425 15.4433C27.3425 16.8351 26.8105 18.122 25.9087 19.165C25.8492 19.235 25.7733 19.3166 25.6812 19.41C25.5337 19.5584 25.4202 19.7371 25.3485 19.9337C25.2768 20.1303 25.2486 20.3401 25.2658 20.5486L25.407 22.2088C25.4142 22.3061 25.402 22.4039 25.3712 22.4966C25.3405 22.5892 25.2917 22.6748 25.2277 22.7485C25.1638 22.8222 25.0859 22.8826 24.9985 22.9261C24.9112 22.9696 24.8161 22.9955 24.7187 23.0021C24.5566 23.0154 24.3944 22.977 24.2555 22.8925L22.4553 21.8226C22.1485 21.641 21.7881 21.5713 21.4357 21.6255C21.2642 21.6523 21.1207 21.6721 21.0063 21.6873C20.6314 21.7351 20.2538 21.7593 19.8758 21.7596C16.7328 21.7596 14.0448 20.117 12.9423 17.7918Z" fill="#605656"/>
</g>
<defs>
<clipPath id="clip0_22_272">
<rect width="28" height="28" fill="white"/>
</clipPath>
</defs>
</svg>
