<svg width="74" height="75" viewBox="0 0 74 75" fill="none" xmlns="http://www.w3.org/2000/svg">
<g filter="url(#filter0_d_27_715)">
<circle cx="37" cy="36.6666" r="29" stroke="#F24C65" stroke-width="2"/>
</g>
<path d="M46.5857 31.6432C47.3667 30.8622 47.3667 29.5958 46.5857 28.8148L44.8518 27.0808C44.0707 26.2998 42.8044 26.2998 42.0233 27.0808L37 32.1042L31.9766 27.0808C31.1955 26.2998 29.9292 26.2998 29.1481 27.0808L27.4142 28.8148C26.6332 29.5958 26.6332 30.8622 27.4142 31.6432L32.4376 36.6666L27.4142 41.6901C26.6332 42.4711 26.6332 43.7374 27.4142 44.5185L29.1481 46.2524C29.9292 47.0335 31.1955 47.0335 31.9766 46.2524L37 41.229L42.0234 46.2524C42.8044 47.0335 44.0707 47.0335 44.8518 46.2524L46.5858 44.5185C47.3668 43.7374 47.3668 42.4711 46.5858 41.69L41.5623 36.6666L46.5857 31.6432Z" fill="#F24C65"/>
<defs>
<filter id="filter0_d_27_715" x="0" y="0.666626" width="74" height="74" filterUnits="userSpaceOnUse" color-interpolation-filters="sRGB">
<feFlood flood-opacity="0" result="BackgroundImageFix"/>
<feColorMatrix in="SourceAlpha" type="matrix" values="0 0 0 0 0 0 0 0 0 0 0 0 0 0 0 0 0 0 127 0" result="hardAlpha"/>
<feOffset dy="1"/>
<feGaussianBlur stdDeviation="3.5"/>
<feColorMatrix type="matrix" values="0 0 0 0 0 0 0 0 0 0 0 0 0 0 0 0 0 0 0.16 0"/>
<feBlend mode="normal" in2="BackgroundImageFix" result="effect1_dropShadow_27_715"/>
<feBlend mode="normal" in="SourceGraphic" in2="effect1_dropShadow_27_715" result="shape"/>
</filter>
</defs>
</svg>
