<svg width="64" height="65" viewBox="0 0 64 65" fill="none" xmlns="http://www.w3.org/2000/svg">
<g filter="url(#filter0_d_27_724)">
<circle cx="25" cy="25" r="24" transform="matrix(-1 0 0 1 57 6.66663)" stroke="#A34FDB" stroke-width="2"/>
</g>
<path d="M26.4923 31.0824L34.8406 21.1745C35.1748 20.7778 35.8175 21.0897 35.7126 21.5977L34.0373 29.7169C33.9848 29.9712 34.1357 30.2234 34.3847 30.2973L38.2676 31.4493C38.6131 31.5518 38.74 31.9752 38.5077 32.2508L30.1594 42.1587C29.8252 42.5554 29.1825 42.2435 29.2874 41.7355L30.9627 33.6164C31.0152 33.362 30.8643 33.1099 30.6153 33.036L26.7324 31.8839C26.3869 31.7814 26.26 31.358 26.4923 31.0824Z" fill="#A34FDB"/>
<defs>
<filter id="filter0_d_27_724" x="0" y="0.666626" width="64" height="64" filterUnits="userSpaceOnUse" color-interpolation-filters="sRGB">
<feFlood flood-opacity="0" result="BackgroundImageFix"/>
<feColorMatrix in="SourceAlpha" type="matrix" values="0 0 0 0 0 0 0 0 0 0 0 0 0 0 0 0 0 0 127 0" result="hardAlpha"/>
<feOffset dy="1"/>
<feGaussianBlur stdDeviation="3.5"/>
<feColorMatrix type="matrix" values="0 0 0 0 0 0 0 0 0 0 0 0 0 0 0 0 0 0 0.16 0"/>
<feBlend mode="normal" in2="BackgroundImageFix" result="effect1_dropShadow_27_724"/>
<feBlend mode="normal" in="SourceGraphic" in2="effect1_dropShadow_27_724" result="shape"/>
</filter>
</defs>
</svg>
