<svg width="157" height="180" viewBox="0 0 157 180" fill="none" xmlns="http://www.w3.org/2000/svg">
<g clip-path="url(#clip0_177_189)">
<path d="M78.5 90C90.3969 90 101.806 85.2589 110.219 76.8198C118.631 68.3807 123.357 56.9347 123.357 45C123.357 33.0653 118.631 21.6193 110.219 13.1802C101.806 4.74106 90.3969 0 78.5 0C66.6031 0 55.1936 4.74106 46.7812 13.1802C38.3689 21.6193 33.6429 33.0653 33.6429 45C33.6429 56.9347 38.3689 68.3807 46.7812 76.8198C55.1936 85.2589 66.6031 90 78.5 90ZM62.4846 106.875C27.9656 106.875 0 134.93 0 169.559C0 175.324 4.66094 180 10.4083 180H146.592C152.339 180 157 175.324 157 169.559C157 134.93 129.034 106.875 94.5154 106.875H62.4846Z" fill="white"/>
</g>
<defs>
<clipPath id="clip0_177_189">
<rect width="157" height="180" fill="white"/>
</clipPath>
</defs>
</svg>
