<svg width="74" height="75" viewBox="0 0 74 75" fill="none" xmlns="http://www.w3.org/2000/svg">
<g filter="url(#filter0_d_27_721)">
<circle cx="37" cy="36.6666" r="29" stroke="#3CDBA7" stroke-width="2"/>
</g>
<path d="M46.9617 27.7664C46.3259 27.1017 45.5698 26.5739 44.7368 26.2136C43.9039 25.8532 43.0106 25.6673 42.1082 25.6666C40.4014 25.6669 38.7569 26.3326 37.5003 27.5318C36.2438 26.3324 34.5993 25.6667 32.8924 25.6666C31.989 25.6676 31.0946 25.8541 30.2609 26.2152C29.4271 26.5764 28.6704 27.1052 28.0343 27.7712C25.321 30.6001 25.3221 35.0247 28.0366 37.8416L36.0598 46.1712C36.8465 46.9879 38.1541 46.9879 38.9407 46.1712L46.964 37.8416C49.6785 35.0247 49.6796 30.6001 46.9617 27.7664Z" fill="#3CDBA7"/>
<defs>
<filter id="filter0_d_27_721" x="0" y="0.666626" width="74" height="74" filterUnits="userSpaceOnUse" color-interpolation-filters="sRGB">
<feFlood flood-opacity="0" result="BackgroundImageFix"/>
<feColorMatrix in="SourceAlpha" type="matrix" values="0 0 0 0 0 0 0 0 0 0 0 0 0 0 0 0 0 0 127 0" result="hardAlpha"/>
<feOffset dy="1"/>
<feGaussianBlur stdDeviation="3.5"/>
<feColorMatrix type="matrix" values="0 0 0 0 0 0 0 0 0 0 0 0 0 0 0 0 0 0 0.16 0"/>
<feBlend mode="normal" in2="BackgroundImageFix" result="effect1_dropShadow_27_721"/>
<feBlend mode="normal" in="SourceGraphic" in2="effect1_dropShadow_27_721" result="shape"/>
</filter>
</defs>
</svg>
