<svg width="122" height="139" viewBox="0 0 122 139" fill="none" xmlns="http://www.w3.org/2000/svg">
<path d="M61 69.5C70.2447 69.5 79.1107 65.8389 85.6477 59.322C92.1847 52.8051 95.8571 43.9663 95.8571 34.75C95.8571 25.5337 92.1847 16.6949 85.6477 10.178C79.1107 3.66115 70.2447 0 61 0C51.7553 0 42.8893 3.66115 36.3523 10.178C29.8153 16.6949 26.1429 25.5337 26.1429 34.75C26.1429 43.9663 29.8153 52.8051 36.3523 59.322C42.8893 65.8389 51.7553 69.5 61 69.5ZM48.5549 82.5312C21.7313 82.5312 0 104.196 0 130.937C0 135.389 3.62188 139 8.08795 139H113.912C118.378 139 122 135.389 122 130.937C122 104.196 100.269 82.5312 73.4451 82.5312H48.5549Z" fill="#3B3B3B"/>
</svg>
