<svg width="22" height="22" viewBox="0 0 22 22" fill="none" xmlns="http://www.w3.org/2000/svg">
<g clip-path="url(#clip0_22_297)">
<path d="M10.7369 10.5085C9.26059 10.5085 7.99677 9.994 6.94546 8.96504C5.89414 7.93609 5.36848 6.69915 5.36848 5.25424C5.36848 3.80932 5.89414 2.57239 6.94546 1.54343C7.99677 0.514478 9.26059 0 10.7369 0C12.2132 0 13.477 0.514478 14.5283 1.54343C15.5797 2.57239 16.1053 3.80932 16.1053 5.25424C16.1053 6.69915 15.5797 7.93609 14.5283 8.96504C13.477 9.994 12.2132 10.5085 10.7369 10.5085ZM2.68427 21.0169C1.94611 21.0169 1.31443 20.7599 0.789219 20.2459C0.263113 19.731 6.10352e-05 19.1123 6.10352e-05 18.3898V17.339C6.10352e-05 16.5946 0.196009 15.9103 0.587903 15.2859C0.978903 14.6624 1.49875 14.1864 2.14743 13.8581C3.53427 13.1794 4.94348 12.6702 6.37506 12.3304C7.80664 11.9915 9.26059 11.822 10.7369 11.822C12.2132 11.822 13.6672 11.9915 15.0987 12.3304C16.5303 12.6702 17.9395 13.1794 19.3264 13.8581C19.9751 14.1864 20.4949 14.6624 20.8859 15.2859C21.2778 15.9103 21.4737 16.5946 21.4737 17.339V18.3898C21.4737 19.1123 21.2111 19.731 20.6859 20.2459C20.1598 20.7599 19.5277 21.0169 18.7895 21.0169H2.68427Z" fill="#605656"/>
</g>
<defs>
<clipPath id="clip0_22_297">
<rect width="22" height="22" fill="white"/>
</clipPath>
</defs>
</svg>
