<svg width="64" height="65" viewBox="0 0 64 65" fill="none" xmlns="http://www.w3.org/2000/svg">
<g filter="url(#filter0_d_27_712)">
<circle cx="25" cy="25" r="24" transform="matrix(-1 0 0 1 57 6.66663)" stroke="#F2B721" stroke-width="2"/>
</g>
<path d="M24.0351 26.3602C23.513 25.96 23.513 25.1733 24.0351 24.773L30.3916 19.8998C31.0494 19.3954 32 19.8644 32 20.6934V23.2666C33.7801 23.2666 35.5201 23.8062 37.0002 24.8171C38.4802 25.828 39.6338 27.2649 40.3149 28.9459C40.9961 30.627 41.1743 32.4768 40.8271 34.2615C40.4798 36.0461 39.6226 37.6854 38.3639 38.972C37.1053 40.2586 35.5016 41.1349 33.7558 41.4898C32.01 41.8448 30.2004 41.6626 28.5559 40.9663C26.9113 40.27 25.5057 39.0908 24.5168 37.5779C23.9401 36.6956 23.5202 35.723 23.2703 34.7046C22.973 33.4926 24.0117 32.4666 25.2597 32.4666C26.5076 32.4666 27.4735 33.5351 28.0554 34.6391C28.1224 34.7662 28.1955 34.8905 28.2744 35.0113C28.7668 35.7645 29.4666 36.3516 30.2853 36.6983C31.1041 37.0449 32.005 37.1356 32.8742 36.9589C33.7434 36.7822 34.5417 36.3459 35.1684 35.7054C35.795 35.0648 36.2218 34.2487 36.3946 33.3602C36.5675 32.4717 36.4788 31.5508 36.1397 30.7138C35.8005 29.8769 35.2262 29.1615 34.4893 28.6583C33.7525 28.155 32.8862 27.8863 32 27.8863V30.4399C32 31.2688 31.0494 31.7378 30.3916 31.2335L24.0351 26.3602Z" fill="#F2B721"/>
<defs>
<filter id="filter0_d_27_712" x="0" y="0.666626" width="64" height="64" filterUnits="userSpaceOnUse" color-interpolation-filters="sRGB">
<feFlood flood-opacity="0" result="BackgroundImageFix"/>
<feColorMatrix in="SourceAlpha" type="matrix" values="0 0 0 0 0 0 0 0 0 0 0 0 0 0 0 0 0 0 127 0" result="hardAlpha"/>
<feOffset dy="1"/>
<feGaussianBlur stdDeviation="3.5"/>
<feColorMatrix type="matrix" values="0 0 0 0 0 0 0 0 0 0 0 0 0 0 0 0 0 0 0.16 0"/>
<feBlend mode="normal" in2="BackgroundImageFix" result="effect1_dropShadow_27_712"/>
<feBlend mode="normal" in="SourceGraphic" in2="effect1_dropShadow_27_712" result="shape"/>
</filter>
</defs>
</svg>
