<svg width="75" height="74" viewBox="0 0 75 74" fill="none" xmlns="http://www.w3.org/2000/svg">
<g filter="url(#filter0_d_27_712)">
<circle cx="30" cy="30" r="29" transform="matrix(-1 0 0 1 67.25 6)" stroke="#F2B721" stroke-width="2"/>
</g>
<path d="M27.3435 30.9052C26.8008 30.5056 26.8008 29.6944 27.3435 29.2948L35.6571 23.173C36.3174 22.6868 37.25 23.1582 37.25 23.9782V27.4C39.4256 27.4 41.5524 28.0334 43.3613 29.2201C45.1703 30.4068 46.5802 32.0936 47.4127 34.067C48.2452 36.0405 48.4631 38.212 48.0386 40.307C47.6142 42.402 46.5665 44.3263 45.0281 45.8368C43.4898 47.3472 41.5298 48.3758 39.396 48.7925C37.2622 49.2092 35.0504 48.9953 33.0405 48.1779C31.0305 47.3605 29.3125 45.9762 28.1038 44.2002C27.4193 43.1944 26.9156 42.0887 26.6074 40.9308C26.2151 39.4568 27.4865 38.2 29.0118 38.2V38.2C30.5371 38.2 31.7193 39.5151 32.4782 40.8383C32.5462 40.957 32.6191 41.0734 32.6965 41.1872C33.2983 42.0714 34.1536 42.7606 35.1543 43.1676C36.155 43.5745 37.2561 43.681 38.3184 43.4735C39.3808 43.2661 40.3565 42.754 41.1225 42.002C41.8883 41.25 42.41 40.292 42.6212 39.249C42.8325 38.206 42.7241 37.1248 42.3096 36.1424C41.8951 35.1599 41.1932 34.3201 40.2925 33.7293C39.392 33.1385 38.3332 32.8232 37.25 32.8232V36.2218C37.25 37.0418 36.3174 37.5132 35.6571 37.027L27.3435 30.9052Z" fill="#F2B721"/>
<defs>
<filter id="filter0_d_27_712" x="0.25" y="0" width="74" height="74" filterUnits="userSpaceOnUse" color-interpolation-filters="sRGB">
<feFlood flood-opacity="0" result="BackgroundImageFix"/>
<feColorMatrix in="SourceAlpha" type="matrix" values="0 0 0 0 0 0 0 0 0 0 0 0 0 0 0 0 0 0 127 0" result="hardAlpha"/>
<feOffset dy="1"/>
<feGaussianBlur stdDeviation="3.5"/>
<feColorMatrix type="matrix" values="0 0 0 0 0 0 0 0 0 0 0 0 0 0 0 0 0 0 0.16 0"/>
<feBlend mode="normal" in2="BackgroundImageFix" result="effect1_dropShadow_27_712"/>
<feBlend mode="normal" in="SourceGraphic" in2="effect1_dropShadow_27_712" result="shape"/>
</filter>
</defs>
</svg>
